<svg version="1.2" xmlns="http://www.w3.org/2000/svg" viewBox="0 0 1191 1684" width="1191" height="1684">
	<defs>
		<clipPath clipPathUnits="userSpaceOnUse" id="cp1">
			<path d="m0 0h1191v1684h-1191z"/>
		</clipPath>
	</defs>
	<style>
		.s0 { fill: #7b1113 } 
		.s1 { fill: #ffffff } 
	</style>
	<g id="Page 1" clip-path="url(#cp1)">
		<path id="Path 2" fill-rule="evenodd" class="s0" d="m76.62 95.29c-4.57 23.34-5.77 60.37-9.13 145.29-3.38 84.67-8.9 217.69-9.86 301.89-0.96 83.94 2.88 119.31 16.82 140.47 13.71 21.17 37.98 28.14 141.32 34.88 103.36 6.73 285.79 13.23 438.89 19 152.86 5.54 275.94 10.34 343.95 3.6 68.03-6.49 81-24.76 86.78-88.51 5.75-63.75 4.32-173.19 1.43-268.68-2.88-95.75-7.45-177.53-16.59-220.83-9.37-43.29-23.54-48.59-97.33-58.92-73.78-10.59-206.96-26.22-345.39-33.2-138.69-6.97-282.66-5.05-371.83-6.73-89.42-1.46-124.02-6.5-145.17-4.1-21.39 2.4-29.33 12.27-33.65 35.6z"/>
		<path id="Path 2" fill-rule="evenodd" class="s1" d="m509.73 365.42c-10.57 17.09-29.08 46.91-23.31 86.12 5.76 39.45 35.81 88.51 74.99 110.16 39.18 21.66 87.49 16.36 119.94-10.58 32.2-26.7 48.55-74.56 43.26-118.59-5.52-44.02-32.69-84.19-69.71-99.1-37-14.67-83.64-4.32-108.15 2.89-24.52 7.46-26.92 12.02-37.26 29.1z"/>
		<path id="Path 3" fill-rule="evenodd" class="s1" d="m995.49 181.88c-9.62 9.39-50.72 40.41-107.69 88.53-57.19 48.11-130.26 113.3-189.39 153.71-58.89 40.41-103.59 56.28-151.18 42.33-47.6-13.95-98.31-57.74-175.46-124.61-76.92-66.87-180.51-157.06-234.84-207.58-54.55-50.75-59.83-62.06-29.31-41.13 30.53 20.92 96.62 74.08 174.5 140.95 77.86 66.63 167.04 146.97 229.77 181.13 62.74 34.65 99.27 23.1 142.29 1.69 43.03-21.16 92.79-52.44 145.18-90.93 52.16-38.49 107.19-84.19 145.41-113.05 38.46-28.86 60.33-40.65 50.72-31.04z"/>
		<path id="Path 4" fill-rule="evenodd" class="s1" d="m819.07 448.4c48.06 55.34 146.61 162.86 195.65 214.34 49.03 51.7 47.83 47.62 34.6 32.47-13.45-15.4-39.42-42.1-71.38-79.38-31.97-37.29-70.43-85.15-105.03-125.08-34.61-40.17-65.39-72.41-82.2-86.84-16.83-14.43-19.71-10.83 28.36 44.49zm-479.28-33.19c-36.04 31.51-95.41 86.11-143.49 134.95-47.82 48.83-84.12 92.13-81.24 95.25 2.9 3.38 44.48-33.43 94.48-80.58 50.23-46.9 108.62-104.16 142.04-139.03 33.41-34.88 41.1-47.15 38.93-49.07-2.4-1.93-14.66 6.74-50.72 38.24z"/>
		<path id="Path 5" fill-rule="evenodd" class="s0" d="m575.84 520.57c-11.78-18.27-31.25-45.47-39.9-68.07-8.9-22.61-7.22-40.41-1.68-51.48 5.28-11.06 14.17-15.15 23.07-13.23 9.13 2.17 18.51 10.35 26.92 8.91 8.4-1.22 15.86-11.79 31.97-16.85 16.09-4.81 40.86-3.84 46.38 18.29 5.53 21.88-8.66 65.43-23.07 95.73-14.42 30.07-29.57 47.38-38.94 51-9.38 3.85-12.98-5.78-24.75-24.3z"/>
	</g>
</svg>